<?xml version="1.0" encoding="utf-8"?>
<!-- Generator: Adobe Illustrator 15.1.0, SVG Export Plug-In . SVG Version: 6.00 Build 0)  -->
<!DOCTYPE svg PUBLIC "-//W3C//DTD SVG 1.1//EN" "http://www.w3.org/Graphics/SVG/1.1/DTD/svg11.dtd">
<svg version="1.1" id="圖層_1" xmlns="http://www.w3.org/2000/svg" xmlns:xlink="http://www.w3.org/1999/xlink" x="0px" y="0px"
	 width="612px" height="792px" viewBox="0 0 612 792" enable-background="new 0 0 612 792" xml:space="preserve">
<path fill-rule="evenodd" clip-rule="evenodd" d="M342.411,352.329c-3.01-3.974-1.472-14.597-2.354-22.997
	c-5.886,0.332-8.926,3.082-12.944,5c0.456,9.72-1.536,17.359-3.531,24.997c-9.036-3.381-3.637-21.879-3.53-29.997
	c3.451,0.068,4.371,2.286,5.885,4C341.013,311.674,359.124,335.235,342.411,352.329z"/>
<path fill-rule="evenodd" clip-rule="evenodd" d="M269.45,340.331c-3.111,1.914-10.805,1.039-14.122,0
	C256.859,335.501,268.025,334.997,269.45,340.331z"/>
<path fill-rule="evenodd" clip-rule="evenodd" d="M225.908,337.331c7.487,3.637,12.318,9.531,18.829,13.999
	c-6.068,0.473-13.399-6.6-22.359-7C221.179,339.979,224.813,339.733,225.908,337.331z"/>
<path fill-rule="evenodd" clip-rule="evenodd" d="M222.378,347.33c7.726,2.768,13.57,7.134,20.005,10.999
	c-7.282,1.836-15.178-4.421-22.359-6C219.843,349.842,221.873,349.234,222.378,347.33z"/>
<path fill-rule="evenodd" clip-rule="evenodd" d="M411.843,355.329c-8.948,2.396-19.129,3.745-30.598,4
	C390.804,358.395,410.603,338.602,411.843,355.329z"/>
<path fill-rule="evenodd" clip-rule="evenodd" d="M268.273,350.33c6.422,0.876,4.914,8.49,7.061,12.999
	C269.24,362.173,268.328,356.616,268.273,350.33z"/>
<path fill-rule="evenodd" clip-rule="evenodd" d="M255.328,351.33c1.177,0,2.354,0,3.53,0c1.628,29.126,49.766,26.518,54.133,1
	C321.219,384.088,251.387,380.881,255.328,351.33z"/>
<path fill-rule="evenodd" clip-rule="evenodd" d="M297.693,382.326c-0.695,5.741-6.733,6.943-8.238,11.998
	c2.131,2.188,9.214,0.17,11.767,2c-1.531,2.363-6.36,1.928-9.414,2.999c4.055,5.805,4.766,15.457-1.176,19.998
	c-9.063,2.192-15.542-2.405-16.475-6.999c-1.978-9.735,16.67-15.43,15.298-24.997c-3.118-1.351-7.55-1.585-9.415-4
	C285.33,379.699,294.146,374.183,297.693,382.326z M283.571,418.321c4.79-2.083,10.702-12.228,4.707-16.998
	C282.279,403.979,271.18,414.641,283.571,418.321z"/>
<path fill-rule="evenodd" clip-rule="evenodd" d="M329.467,380.326c3.718,0.189,2.729,7.386,1.177,8.998
	c0.945,2.01,4.844-1.788,7.061-1.999c11.856,1.229,9.817,23.476,4.707,29.996c-3.096,1.035-7.222,1.196-11.768,1
	c11.01-2.311,6.943-17.431,9.414-26.997c-8.917-1.03-12.445,7.132-17.652,5.999C322.952,390.123,329.535,388.05,329.467,380.326z"/>
<path fill-rule="evenodd" clip-rule="evenodd" d="M413.02,390.324c14.693,13.725,6.916,33.316-23.536,26.997
	C403.883,417.439,422.329,407.834,413.02,390.324z"/>
<path fill-rule="evenodd" clip-rule="evenodd" d="M323.582,400.323c7.021-0.633,11.382,0.995,14.122,4
	C333.334,406.662,323.565,405.034,323.582,400.323z"/>
<path fill-rule="evenodd" clip-rule="evenodd" d="M311.814,426.32c-1.029,5.458-8.361,5.562-10.592,9.998
	c21.165,0.982,42.581-6.479,65.901-6.999c3.607,3.185-1.99,4.185-1.177,7.999c13.444,4.563,25.854-5.168,37.657-1.999
	c-11.553,2.117-29.859,7.12-41.188,2.999c-0.564-3.146,1.676-3.908,2.354-5.999c-26.658-1.32-43.196,5.959-67.077,6.999
	c-0.132-7.11,8.323-6.926,10.591-11.998c-6.841-2.828-15.69,0.435-23.536,0C291.766,425.427,306.458,423.473,311.814,426.32z"/>
<path fill-rule="evenodd" clip-rule="evenodd" d="M300.047,328.333c-0.729,4.38-3.054,7.404-3.531,11.998
	c12.208,2.957,12.347,18.155,4.707,25.997c-2.068,0.575-6.914-1.208-7.061,1c1.982-2.667,6.867-11.483,4.707-20.998
	c-1.961,0-3.922,0-5.883,0c1.287,4.309,4.824,11.824-1.178,13.998c-4.732,0.582,0.586-2.959-1.176-5.999
	c-5.09,0.341-5.254,4.868-11.768,4c4.234-10.412-7.695-19.407-4.707-32.996C280.687,331.896,294.001,314.53,300.047,328.333z
	 M278.864,332.332c3.684,0.464,5.253-0.87,4.707-4C279.887,327.868,278.318,329.202,278.864,332.332z M290.632,330.332
	c1.579-0.658,2.192-2.137,2.354-4c-1.962,0-3.923,0-5.885,0C287.597,328.245,287.528,330.636,290.632,330.332z M285.925,339.331
	c3.7,0.144,4.043-2.564,4.708-5C286.277,333.631,287.697,337.837,285.925,339.331z M281.218,353.329c4.24-0.396,7.498-1.628,8.238-5
	C285.543,349.005,282.27,350.224,281.218,353.329z"/>
<path fill-rule="evenodd" clip-rule="evenodd" d="M401.251,339.331c1.179,1.332,1.94,3.018,3.53,4
	c-5.992,5.907-18.72,6.091-28.243,8.999C378.572,346.715,392.923,342.928,401.251,339.331z"/>
<path fill-rule="evenodd" clip-rule="evenodd" d="M332.997,368.327c-1.155-4.086,0.129-4.041,0-8.999
	c-5.142,3.964-6.834,10.858-12.945,13.998c2.322-7.7,8.41-20.846,9.415-32.996c10.907,0.62,3.015,11.342,10.591,13.999
	c0.883,6.083-1.938,9.019-2.354,13.998c17.232,8.425,26.578-6.587,22.359-22.997c4.414,6.915,10.237,12.632,10.591,22.997
	C361.087,374.395,342.564,374.395,332.997,368.327z"/>
<path fill-rule="evenodd" clip-rule="evenodd" d="M250.621,415.321c8.027-5.523,3.597-15.684,4.707-23.997
	c4.24,1.396,4.322,6.327,5.884,9.999c8.87-2.063,7.161-15.241,8.237-20.997C279.595,390.074,271.315,425.328,250.621,415.321z
	 M264.743,401.323c-1.929,2.421-2.997,4.857-1.177,7.999c-5.666-0.481-5.595,3.912-7.061,6.999
	C265.374,417.174,265.032,404.925,264.743,401.323z"/>
<path fill-rule="evenodd" clip-rule="evenodd" d="M398.897,388.325c-5.075,2.364-12.183,4.674-16.475,0
	c5.389-2.088,10.703-4.237,16.475-5.999c3.451,0.067,4.371,2.285,5.884,3.999c-7.791,9.755-19.766,15.658-21.182,27.996
	c-7.438,1.698-0.517-9.268,0-12.998C390.64,398.64,395.739,394.307,398.897,388.325z"/>
<path fill-rule="evenodd" clip-rule="evenodd" d="M317.698,383.325c-0.224,6.143-8.304,5.609-11.768,8.999
	c0.235,3.799,1.041,7.114,2.354,9.999c2.866-0.564,6.053-0.856,5.884-4c1.187-3.007-2.622-1.771-4.707-1.999
	c8.052-11.738,16.2,9.807,10.591,18.997c-1.748-1.181-5.258-0.865-4.707-3.999c-2.756,2.324-7.007,3.378-10.591,4.999
	c-5.783-6.626,1.472-18.207-2.354-25.997C308.836,389.562,310.45,380.15,317.698,383.325z"/>
<path fill-rule="evenodd" clip-rule="evenodd" d="M368.301,379.326c-2.095,4.886-8.932,5.742-15.298,6.999
	c0.99,3.824,1.537,8.026,1.177,12.998c3.511,2.082,8.135-3.911,12.944-1c0-1.999,0-3.999,0-5.999c-0.876-2.255-6.601-0.391-9.414-1
	c18.393-15.133,19.022,23.083,14.121,33.996c-5.67,0.484-8.115-1.771-9.414-5c-2.459,1.578-7.814,0.693-10.592,2
	C349.039,405.211,346.912,375.804,368.301,379.326z M364.771,410.322c-3.743,0.152-5.178,2.267-9.414,2
	c0.2,1.496-0.421,3.689,1.177,3.999C357.899,413.149,363.832,413.857,364.771,410.322z M360.063,417.321
	c0.997-2.931,3.788,0.598,5.884,0c1.354-1.182,1.332-3.534,1.177-5.999C363.678,411.776,358.646,416.051,360.063,417.321z
	 M355.356,407.322c2.843,0.004,7.522-3.501,4.707-4.999C359.852,405.143,354.47,403.57,355.356,407.322z M360.063,407.322
	c2.354,0,4.707,0,7.061,0c0-1.666,0-3.333,0-4.999C363.223,402.675,362.019,405.318,360.063,407.322z"/>
<path fill-rule="evenodd" clip-rule="evenodd" d="M241.207,441.318c5.167-5.609,15.146-7.129,23.536-9.999
	C256.506,433.769,247.857,440.813,241.207,441.318z"/>
<path fill-rule="evenodd" clip-rule="evenodd" d="M236.5,388.325c2.327,3.169,13.077-3.773,12.945,2.999
	c-9.105,0.93-15.721,3.975-24.713,5c2.54,4.065,2.441,7.751,1.177,12.998c6.251-1.688,8.041-7.166,15.298-7.999
	c0.659,1.439,1.836,2.439,3.53,3c0.279,4.235-3.433,5.082-4.707,7.999c5.769,3.764,14.638,4.894,17.652,10.998
	c-8.179-1.383-12.755-5.827-20.005-7.999c-5.291,1.504-7.317,5.781-14.122,5.999c-0.701,5.07-1.239,10.279-3.53,13.999
	c-4.329-1.555,0.526-9.365-1.177-14.999c-5.478,2.679-6.108,9.476-14.122,9.999c-0.066-4.722,4.296-5.682,7.061-7.999
	c-4.411-5.049-1.465-14.088-1.177-20.997c-6.843,0.104-12.219,5.936-18.829,3c9.545-6.555,24.194-8.773,36.48-12.999
	c-2.245-3.113-5.11,1.563-8.237,1c-3.589-4.616-7.649-8.832-5.884-17.998c3.309-0.145,3.394,2.449,3.531,5
	c4.938-0.557,12.425-4.69,15.298-1c3.019-0.102,1.891-3.727,3.53-5c-2.014-2.288-8.983-0.367-12.945-1
	C237.548,359.752,248.474,379.171,236.5,388.325z M220.024,385.325c2.214,1.764,5.447-1.247,7.061-2.999
	C224.468,383.102,220.704,382.903,220.024,385.325z M225.908,386.325c4.142,1.424,7.533-2.804,4.707-3.999
	C229.55,384.087,226.284,383.978,225.908,386.325z M215.317,399.323c0.201,1.496-0.42,3.69,1.177,4c-0.177-3.15,6.564-0.423,4.708-5
	C218.366,397.914,218.643,400.149,215.317,399.323z M228.262,411.322c2.354,0,4.708,0,7.061,0c1.126-2.043,2.404-3.957,3.53-6
	C234.113,406.295,231.649,409.2,228.262,411.322z M225.908,419.321c0.732-2.711,4.917-2.489,4.707-6c-1.569,0-3.138,0-4.707,0
	C224.987,414.016,223.289,418.9,225.908,419.321z"/>
</svg>
